<svg xmlns="http://www.w3.org/2000/svg" width="400" height="300" viewBox="0 0 105.833 79.375"><path fill="#e5e3df" d="M0 0h400v300H0z"/><path d="M43.221 13.23a7.408 7.408 0 0 0-7.408 7.407 7.408 7.408 0 0 0 .003.078 7.408 7.408 0 0 0-1.95-.27 7.408 7.408 0 0 0-7.408 7.409 7.408 7.408 0 0 0 7.409 7.408 7.408 7.408 0 0 0 2.548-.458l5.88 7.455a14.817 14.817 0 0 1 12.966-7.681 14.817 14.817 0 0 1 2.86.298l-.543-6.812a7.408 7.408 0 0 0 2.674-5.69 7.408 7.408 0 0 0-7.409-7.407 7.408 7.408 0 0 0-3.816 1.067 7.408 7.408 0 0 0-5.806-2.805zm13.293 23.282A14.817 14.817 0 0 0 41.698 51.33a14.817 14.817 0 0 0 14.816 14.817 14.817 14.817 0 0 0 14.571-12.204c2.384 1.044 6.1 1.02 8.29-4.394-5.392 3.286-5.414 2.52-8.062 1.292a14.817 14.817 0 0 0-.379-2.86 3.307 3.307 0 0 0 .598.056 3.307 3.307 0 0 0 3.307-3.307 3.307 3.307 0 0 0-3.307-3.307 3.307 3.307 0 0 0-2.804 1.561 14.817 14.817 0 0 0-12.214-6.47zm2.591 3.617a3.307 3.307 0 0 1 3.308 3.307 3.307 3.307 0 0 1-3.308 3.307 3.307 3.307 0 0 1-3.307-3.307 3.307 3.307 0 0 1 3.307-3.307zm9.025 8.522c.861 0 1.559.698 1.559 1.559-.19 1.475-8.115 12.237-22.536 1.937C62.037 57.477 64.5 50.07 68.13 48.65z" fill="#90a4ae"/></svg>