<svg xmlns="http://www.w3.org/2000/svg" width="400" height="300" viewBox="0 0 105.83333 79.375002"><rect width="400" height="300" style="fill:#e5e3df;"/><path d="m 43.221071,13.22912 a 7.408347,7.408347 0 0 0 -7.408348,7.408334 7.408347,7.408347 0 0 0 0.0032,0.0776 7.408347,7.408347 0 0 0 -1.949241,-0.26976 7.408347,7.408347 0 0 0 -7.408348,7.408354 7.408347,7.408347 0 0 0 7.408348,7.408334 7.408347,7.408347 0 0 0 2.548689,-0.457841 l 5.878724,7.454854 A 14.816694,14.816694 0 0 1 55.260766,34.5778 14.816694,14.816694 0 0 1 58.120547,34.876481 L 57.577944,28.064488 A 7.408347,7.408347 0 0 0 60.251685,22.374897 7.408347,7.408347 0 0 0 52.843339,14.966564 7.408347,7.408347 0 0 0 49.02651,16.034186 7.408347,7.408347 0 0 0 43.221169,13.2292 Z M 56.514338,36.512484 A 14.816694,14.816694 0 0 0 41.697644,51.329191 14.816694,14.816694 0 0 0 56.514338,66.145879 14.816694,14.816694 0 0 0 71.085055,53.941956 c 2.384307,1.044482 6.099095,1.020102 8.289945,-4.393548 -5.391932,3.285886 -5.41382,2.519985 -8.061535,1.291923 a 14.816694,14.816694 0 0 0 -0.379308,-2.859786 3.307298,3.307298 0 0 0 0.597383,0.0558 3.307298,3.307298 0 0 0 3.307298,-3.307286 3.307298,3.307298 0 0 0 -3.307298,-3.307306 3.307298,3.307298 0 0 0 -2.803969,1.561663 14.816694,14.816694 0 0 0 -12.213233,-6.470932 z m 2.591065,3.616327 a 3.307298,3.307298 0 0 1 3.307298,3.307286 3.307298,3.307298 0 0 1 -3.307298,3.307306 3.307298,3.307298 0 0 1 -3.307298,-3.307306 3.307298,3.307298 0 0 1 3.307298,-3.307286 z m 9.024785,8.522495 c 0.861093,0 1.558556,0.697462 1.558568,1.558563 -0.18898,1.475323 -8.115115,12.236683 -22.536133,1.936844 14.884749,5.32995 17.34884,-2.075264 20.977565,-3.495407 z" style="fill:#90a4ae;" /></svg>
